<mxfile host="65bd71144e" scale="8" border="0">
    <diagram id="BqLSz4NliBRNLOw9xbUb" name="Page-1">
        <mxGraphModel dx="1478" dy="1109" grid="1" gridSize="10" guides="1" tooltips="1" connect="1" arrows="1" fold="1" page="1" pageScale="1" pageWidth="850" pageHeight="1100" math="0" shadow="0">
            <root>
                <mxCell id="0"/>
                <mxCell id="1" parent="0"/>
                <mxCell id="28" value="" style="edgeStyle=none;html=1;" parent="1" source="21" target="118" edge="1">
                    <mxGeometry relative="1" as="geometry">
                        <mxPoint x="410" y="350" as="targetPoint"/>
                    </mxGeometry>
                </mxCell>
                <mxCell id="21" value="&lt;b&gt;Raw Data Input&lt;/b&gt;" style="swimlane;fontStyle=0;childLayout=stackLayout;horizontal=1;startSize=30;horizontalStack=0;resizeParent=1;resizeParentMax=0;resizeLast=0;collapsible=1;marginBottom=0;whiteSpace=wrap;html=1;fillColor=#b1ddf0;strokeColor=#10739e;" parent="1" vertex="1">
                    <mxGeometry x="170" y="277.5" width="150" height="90" as="geometry"/>
                </mxCell>
                <mxCell id="22" value="Source: Kaggle Toxic Comment Classification Challenge" style="text;strokeColor=none;fillColor=none;align=center;verticalAlign=middle;spacingLeft=4;spacingRight=4;overflow=hidden;points=[[0,0.5],[1,0.5]];portConstraint=eastwest;rotatable=0;whiteSpace=wrap;html=1;fontSize=12;spacingTop=2;spacingBottom=2;" parent="21" vertex="1">
                    <mxGeometry y="30" width="150" height="60" as="geometry"/>
                </mxCell>
                <mxCell id="118" value="Preprocessing" style="swimlane;startSize=20;horizontal=1;childLayout=treeLayout;horizontalTree=0;sortEdges=1;resizable=1;containerType=tree;fontSize=12;rounded=1;shadow=0;autosize=0;resizeHeight=1;fillColor=#b1ddf0;strokeColor=#10739e;" parent="1" vertex="1">
                    <mxGeometry x="370" y="162.5" width="140" height="320" as="geometry"/>
                </mxCell>
                <mxCell id="119" value="Clean and standardize text" style="whiteSpace=wrap;html=1;imageWidth=2;imageHeight=20;" parent="118" vertex="1">
                    <mxGeometry x="20" y="40" width="100" height="40" as="geometry"/>
                </mxCell>
                <mxCell id="120" value="Tokenize with &lt;b&gt;Ekphrasis&lt;/b&gt;: Split text, handle social media" style="whiteSpace=wrap;html=1;" parent="118" vertex="1">
                    <mxGeometry x="20" y="130" width="100" height="70" as="geometry"/>
                </mxCell>
                <mxCell id="121" value="" style="edgeStyle=elbowEdgeStyle;elbow=vertical;html=1;rounded=1;curved=0;sourcePerimeterSpacing=0;targetPerimeterSpacing=0;startSize=6;endSize=6;" parent="118" source="119" target="120" edge="1">
                    <mxGeometry relative="1" as="geometry"/>
                </mxCell>
                <mxCell id="124" value="" style="edgeStyle=elbowEdgeStyle;elbow=vertical;html=1;rounded=1;curved=0;sourcePerimeterSpacing=0;targetPerimeterSpacing=0;startSize=6;endSize=6;" parent="118" source="120" target="125" edge="1">
                    <mxGeometry relative="1" as="geometry">
                        <mxPoint x="470" y="305" as="sourcePoint"/>
                    </mxGeometry>
                </mxCell>
                <mxCell id="125" value="Annotate hashtags and patterns" style="whiteSpace=wrap;html=1;" parent="118" vertex="1">
                    <mxGeometry x="20" y="250" width="100" height="50" as="geometry"/>
                </mxCell>
                <mxCell id="145" value="Modeliing" style="swimlane;whiteSpace=wrap;html=1;fontStyle=1;fillStyle=auto;fillColor=#b1ddf0;strokeColor=#10739e;" parent="1" vertex="1">
                    <mxGeometry x="600" y="5" width="1280" height="635" as="geometry"/>
                </mxCell>
                <mxCell id="158" value="" style="edgeStyle=orthogonalEdgeStyle;html=1;exitX=0.5;exitY=1;exitDx=0;exitDy=0;entryX=0.442;entryY=0.017;entryDx=0;entryDy=0;entryPerimeter=0;" parent="145" source="146" target="149" edge="1">
                    <mxGeometry relative="1" as="geometry"/>
                </mxCell>
                <mxCell id="146" value="Preprocessed Tokens" style="rounded=0;whiteSpace=wrap;html=1;" parent="145" vertex="1">
                    <mxGeometry x="620" y="35" width="110" height="40" as="geometry"/>
                </mxCell>
                <mxCell id="272" style="edgeStyle=orthogonalEdgeStyle;html=1;entryX=0.5;entryY=0;entryDx=0;entryDy=0;exitX=0.5;exitY=1;exitDx=0;exitDy=0;" parent="145" source="149" target="228" edge="1">
                    <mxGeometry relative="1" as="geometry"/>
                </mxCell>
                <mxCell id="149" value="Train" style="whiteSpace=wrap;html=1;rounded=0;" parent="145" vertex="1">
                    <mxGeometry x="70" y="110" width="120" height="60" as="geometry"/>
                </mxCell>
                <mxCell id="193" value="Evaluate and output best model and metrics" style="whiteSpace=wrap;html=1;rounded=0;" parent="145" vertex="1">
                    <mxGeometry x="230" y="570" width="220" height="40" as="geometry"/>
                </mxCell>
                <mxCell id="194" value="" style="edgeStyle=orthogonalEdgeStyle;html=1;entryX=0.25;entryY=0;entryDx=0;entryDy=0;" parent="145" source="190" target="193" edge="1">
                    <mxGeometry relative="1" as="geometry">
                        <mxPoint x="266.2962962962963" y="550" as="targetPoint"/>
                        <Array as="points">
                            <mxPoint x="130" y="540"/>
                            <mxPoint x="285" y="540"/>
                        </Array>
                    </mxGeometry>
                </mxCell>
                <mxCell id="212" style="edgeStyle=orthogonalEdgeStyle;html=1;entryX=0.5;entryY=0;entryDx=0;entryDy=0;exitX=0.5;exitY=1;exitDx=0;exitDy=0;" parent="145" source="149" target="208" edge="1">
                    <mxGeometry relative="1" as="geometry"/>
                </mxCell>
                <mxCell id="270" style="edgeStyle=orthogonalEdgeStyle;html=1;entryX=0.75;entryY=0;entryDx=0;entryDy=0;" parent="145" source="227" target="268" edge="1">
                    <mxGeometry relative="1" as="geometry"/>
                </mxCell>
                <mxCell id="269" value="" style="edgeStyle=orthogonalEdgeStyle;html=1;entryX=0.25;entryY=0;entryDx=0;entryDy=0;" parent="145" source="207" target="268" edge="1">
                    <mxGeometry relative="1" as="geometry"/>
                </mxCell>
                <mxCell id="271" style="edgeStyle=orthogonalEdgeStyle;html=1;entryX=0.75;entryY=0;entryDx=0;entryDy=0;" parent="145" source="268" target="193" edge="1">
                    <mxGeometry relative="1" as="geometry"/>
                </mxCell>
                <mxCell id="268" value="&lt;span style=&quot;color: rgb(0, 0, 0);&quot;&gt;Train with&amp;nbsp;&lt;/span&gt;&lt;b&gt;Adaptive Focal Loss&lt;/b&gt;" style="whiteSpace=wrap;html=1;rounded=0;" parent="145" vertex="1">
                    <mxGeometry x="470" y="475" width="120" height="60" as="geometry"/>
                </mxCell>
                <mxCell id="276" value="" style="group;fillColor=#4696C8;fontColor=#ffffff;strokeColor=#314354;opacity=80;" parent="145" vertex="1" connectable="0">
                    <mxGeometry x="10" y="200" width="240" height="320" as="geometry"/>
                </mxCell>
                <mxCell id="201" value="" style="edgeStyle=orthogonalEdgeStyle;html=1;" parent="276" source="149" target="200" edge="1">
                    <mxGeometry relative="1" as="geometry"/>
                </mxCell>
                <mxCell id="188" value="Train models: Logistic Regression, LightGBM, XGBoost" style="whiteSpace=wrap;html=1;rounded=0;" parent="276" vertex="1">
                    <mxGeometry y="165" width="240" height="51.2" as="geometry"/>
                </mxCell>
                <mxCell id="275" value="" style="group;perimeterSpacing=0;" parent="276" vertex="1" connectable="0">
                    <mxGeometry x="5" y="5" width="230" height="320" as="geometry"/>
                </mxCell>
                <mxCell id="200" value="Vectorizer Model" style="ellipse;whiteSpace=wrap;html=1;rounded=0;" parent="275" vertex="1">
                    <mxGeometry x="30" width="170" height="50" as="geometry"/>
                </mxCell>
                <mxCell id="189" value="" style="edgeStyle=none;html=1;" parent="276" source="186" target="188" edge="1">
                    <mxGeometry relative="1" as="geometry"/>
                </mxCell>
                <mxCell id="191" value="" style="edgeStyle=none;html=1;" parent="276" source="188" target="190" edge="1">
                    <mxGeometry relative="1" as="geometry"/>
                </mxCell>
                <mxCell id="186" value="Vectorize using TF-IDF, Count, Word2Vec, FastText, GloVe, or SBERT" style="whiteSpace=wrap;html=1;rounded=0;" parent="276" vertex="1">
                    <mxGeometry x="5" y="75" width="230" height="51.2" as="geometry"/>
                </mxCell>
                <mxCell id="187" value="" style="edgeStyle=none;html=1;exitX=0.5;exitY=1;exitDx=0;exitDy=0;" parent="276" source="200" target="186" edge="1">
                    <mxGeometry relative="1" as="geometry">
                        <mxPoint x="111.5" y="76.80000000000001" as="sourcePoint"/>
                    </mxGeometry>
                </mxCell>
                <mxCell id="190" value="Tune hyperparameters with Optuna" style="whiteSpace=wrap;html=1;rounded=0;" parent="276" vertex="1">
                    <mxGeometry x="20" y="265" width="200" height="38.400000000000006" as="geometry"/>
                </mxCell>
                <mxCell id="277" value="" style="group;fillColor=#4696C8;fontColor=#ffffff;strokeColor=#432D57;opacity=80;" parent="145" vertex="1" connectable="0">
                    <mxGeometry x="270" y="200" width="240" height="240" as="geometry"/>
                </mxCell>
                <mxCell id="202" value="" style="edgeStyle=none;html=1;exitX=0.5;exitY=1;exitDx=0;exitDy=0;" parent="277" source="208" target="204" edge="1">
                    <mxGeometry relative="1" as="geometry">
                        <mxPoint x="111.5" y="55.38461538461539" as="sourcePoint"/>
                    </mxGeometry>
                </mxCell>
                <mxCell id="203" value="" style="edgeStyle=orthogonalEdgeStyle;html=1;entryX=0.25;entryY=0;entryDx=0;entryDy=0;" parent="277" source="204" target="206" edge="1">
                    <mxGeometry relative="1" as="geometry"/>
                </mxCell>
                <mxCell id="204" value="GloVe 300d embeddings" style="whiteSpace=wrap;html=1;rounded=0;" parent="277" vertex="1">
                    <mxGeometry x="5" y="60" width="230" height="32.30769230769231" as="geometry"/>
                </mxCell>
                <mxCell id="205" value="" style="edgeStyle=orthogonalEdgeStyle;html=1;exitX=0.25;exitY=1;exitDx=0;exitDy=0;" parent="277" source="206" target="207" edge="1">
                    <mxGeometry relative="1" as="geometry"/>
                </mxCell>
                <mxCell id="208" value="RNN Model" style="ellipse;whiteSpace=wrap;html=1;rounded=0;" parent="277" vertex="1">
                    <mxGeometry x="35" width="170" height="46.15384615384615" as="geometry"/>
                </mxCell>
                <mxCell id="207" value="&lt;span style=&quot;color: rgb(0, 0, 0);&quot;&gt;BiGRU, BiLSTM, BiLSTM+Attention&lt;/span&gt;" style="whiteSpace=wrap;html=1;rounded=0;" parent="277" vertex="1">
                    <mxGeometry y="185" width="240" height="35" as="geometry"/>
                </mxCell>
                <mxCell id="278" value="" style="group;fillColor=#4696C8;fontColor=#ffffff;strokeColor=#3A5431;opacity=80;" parent="145" vertex="1" connectable="0">
                    <mxGeometry x="560" y="200" width="470" height="240" as="geometry"/>
                </mxCell>
                <mxCell id="222" value="" style="edgeStyle=none;html=1;exitX=0.5;exitY=1;exitDx=0;exitDy=0;" parent="278" source="228" target="224" edge="1">
                    <mxGeometry relative="1" as="geometry">
                        <mxPoint x="208.72916666666669" y="55.38461538461538" as="sourcePoint"/>
                    </mxGeometry>
                </mxCell>
                <mxCell id="223" value="" style="edgeStyle=orthogonalEdgeStyle;html=1;entryX=0.75;entryY=0;entryDx=0;entryDy=0;" parent="278" source="224" target="206" edge="1">
                    <mxGeometry relative="1" as="geometry">
                        <mxPoint x="223.95833333333334" y="138.46153846153845" as="targetPoint"/>
                    </mxGeometry>
                </mxCell>
                <mxCell id="224" value="Pre-trained transformer embeddings" style="whiteSpace=wrap;html=1;rounded=0;" parent="278" vertex="1">
                    <mxGeometry x="8.955466666666668" y="60" width="412.08333333333337" height="32.30769230769231" as="geometry"/>
                </mxCell>
                <mxCell id="225" value="" style="edgeStyle=orthogonalEdgeStyle;html=1;exitX=0.75;exitY=1;exitDx=0;exitDy=0;" parent="278" source="206" target="227" edge="1">
                    <mxGeometry relative="1" as="geometry">
                        <mxPoint x="223.95833333333334" y="175.38461538461536" as="sourcePoint"/>
                    </mxGeometry>
                </mxCell>
                <mxCell id="227" value="&lt;span style=&quot;color: rgb(0, 0, 0);&quot;&gt;Fine-tuning BERT and RoBERTa classifiers&lt;/span&gt;" style="whiteSpace=wrap;html=1;rounded=0;" parent="278" vertex="1">
                    <mxGeometry y="185" width="230" height="32.31" as="geometry"/>
                </mxCell>
                <mxCell id="228" value="Transformer Model" style="ellipse;whiteSpace=wrap;html=1;rounded=0;" parent="278" vertex="1">
                    <mxGeometry x="62.70546666666667" width="304.58333333333337" height="46.153846153846146" as="geometry"/>
                </mxCell>
                <mxCell id="283" value="&lt;span style=&quot;color: rgb(0, 0, 0);&quot;&gt;Fine-tuning GPT-1 and flan-t5-base using LORA&lt;/span&gt;" style="whiteSpace=wrap;html=1;rounded=0;" vertex="1" parent="278">
                    <mxGeometry x="240" y="185" width="230" height="32.31" as="geometry"/>
                </mxCell>
                <mxCell id="206" value="Oversampling for class imabalance" style="whiteSpace=wrap;html=1;rounded=0;" parent="145" vertex="1">
                    <mxGeometry x="395" y="330" width="280" height="30" as="geometry"/>
                </mxCell>
                <mxCell id="284" style="edgeStyle=orthogonalEdgeStyle;html=1;entryX=0.75;entryY=0;entryDx=0;entryDy=0;" edge="1" parent="145" source="283" target="268">
                    <mxGeometry relative="1" as="geometry">
                        <Array as="points">
                            <mxPoint x="915" y="445"/>
                            <mxPoint x="560" y="445"/>
                        </Array>
                    </mxGeometry>
                </mxCell>
                <mxCell id="147" value="Test" style="whiteSpace=wrap;html=1;rounded=0;" parent="145" vertex="1">
                    <mxGeometry x="1140" y="110" width="120" height="60" as="geometry"/>
                </mxCell>
                <mxCell id="157" style="edgeStyle=orthogonalEdgeStyle;html=1;entryX=0.5;entryY=0;entryDx=0;entryDy=0;exitX=0.5;exitY=1;exitDx=0;exitDy=0;" parent="145" source="146" target="147" edge="1">
                    <mxGeometry relative="1" as="geometry"/>
                </mxCell>
                <mxCell id="195" style="edgeStyle=orthogonalEdgeStyle;html=1;entryX=1;entryY=0.5;entryDx=0;entryDy=0;" parent="145" source="147" target="193" edge="1">
                    <mxGeometry relative="1" as="geometry">
                        <Array as="points">
                            <mxPoint x="1200" y="590"/>
                        </Array>
                    </mxGeometry>
                </mxCell>
                <mxCell id="280" style="edgeStyle=none;html=1;entryX=0;entryY=0.5;entryDx=0;entryDy=0;exitX=1;exitY=0.5;exitDx=0;exitDy=0;" parent="1" source="118" target="145" edge="1">
                    <mxGeometry relative="1" as="geometry"/>
                </mxCell>
                <mxCell id="159" value="Val" style="whiteSpace=wrap;html=1;rounded=0;" parent="1" vertex="1">
                    <mxGeometry x="1610" y="115" width="120" height="60" as="geometry"/>
                </mxCell>
                <mxCell id="160" value="" style="edgeStyle=orthogonalEdgeStyle;html=1;exitX=0.5;exitY=1;exitDx=0;exitDy=0;" parent="1" source="146" target="159" edge="1">
                    <mxGeometry relative="1" as="geometry"/>
                </mxCell>
                <mxCell id="281" style="edgeStyle=orthogonalEdgeStyle;html=1;entryX=1;entryY=0.5;entryDx=0;entryDy=0;" parent="1" source="159" target="268" edge="1">
                    <mxGeometry relative="1" as="geometry">
                        <Array as="points">
                            <mxPoint x="1680" y="510"/>
                        </Array>
                    </mxGeometry>
                </mxCell>
                <mxCell id="282" style="edgeStyle=orthogonalEdgeStyle;html=1;entryX=0.75;entryY=0;entryDx=0;entryDy=0;" parent="1" source="159" target="190" edge="1">
                    <mxGeometry relative="1" as="geometry">
                        <Array as="points">
                            <mxPoint x="1680" y="460"/>
                            <mxPoint x="780" y="460"/>
                        </Array>
                    </mxGeometry>
                </mxCell>
            </root>
        </mxGraphModel>
    </diagram>
</mxfile>